<svg width="20" height="19" viewBox="0 0 20 19" fill="none" xmlns="http://www.w3.org/2000/svg">
<path d="M18.125 0.125C18.7891 0.125 19.375 0.710938 19.375 1.375V7.03906C19.375 7.35156 19.2188 7.66406 18.9844 7.89844C18.75 8.13281 18.4375 8.25 18.125 8.25H13.0859C12.4219 8.25 11.875 7.70312 11.875 7C11.875 6.33594 12.4219 5.78906 13.0859 5.78906H14.2578V5.75H14.9609C13.7891 4.22656 11.9531 3.25 10 3.25C7.30469 3.25 4.92188 4.96875 4.0625 7.50781C3.82812 8.17188 3.24219 8.5625 2.57812 8.5625C2.42188 8.5625 2.22656 8.5625 2.07031 8.48438C1.25 8.21094 0.820312 7.35156 1.09375 6.53125C2.38281 2.70312 5.9375 0.125 10 0.125C12.6172 0.125 15.1172 1.25781 16.875 3.17188V1.375C16.875 0.710938 17.4219 0.125 18.125 0.125ZM17.8906 10.5547C18.7109 10.8281 19.1406 11.6875 18.8672 12.5078C17.5781 16.3359 14.0234 18.875 10 18.875C7.34375 18.875 4.84375 17.7812 3.08594 15.8672V17.6641C3.08594 18.3281 2.53906 18.875 1.83594 18.875C1.17188 18.875 0.625 18.3281 0.625 17.6641V12C0.625 11.6875 0.742188 11.375 0.976562 11.1406C1.21094 10.9062 1.52344 10.75 1.83594 10.75H6.875C7.53906 10.75 8.125 11.3359 8.125 12C8.125 12.7031 7.53906 13.25 6.875 13.25H5.70312H5C6.17188 14.8125 8.00781 15.75 10 15.75C12.6562 15.75 15.0391 14.0703 15.8984 11.5312C16.1719 10.7109 17.0703 10.2422 17.8906 10.5547Z" fill="black"/>
</svg>
