<svg width="18" height="15" viewBox="0 0 18 15" fill="none" xmlns="http://www.w3.org/2000/svg">
<path d="M16.875 0.90625C17.5312 1.15625 18 1.78125 18 2.5V11.625C18 12.125 17.75 12.625 17.3438 12.9375C16.9062 13.25 16.3438 13.375 15.8125 13.2188C12.1562 12.2188 9.5 13.9375 9.40625 14C9.28125 14.0938 9.125 14.125 8.96875 14.125C8.84375 14.125 8.6875 14.0938 8.5625 14C8.46875 13.9375 5.84375 12.2188 2.15625 13.2188C1.625 13.375 1.0625 13.25 0.625 12.9375C0.21875 12.625 0 12.125 0 11.625V2.5C0 1.78125 0.4375 1.15625 1.09375 0.90625C2.5625 0.375 3.90625 0.125 5.15625 0.15625C6.96875 0.15625 8.34375 0.6875 9 1C9.625 0.6875 11 0.15625 12.8125 0.15625C14.0312 0.125 15.4062 0.375 16.875 0.90625ZM8.25 12.1562V2.3125C7.6875 2.0625 6.59375 1.65625 5.125 1.65625C4.09375 1.625 2.875 1.875 1.59375 2.3125C1.53125 2.34375 1.5 2.40625 1.5 2.5V11.625C1.5 11.625 1.5 11.6875 1.5625 11.75C1.5625 11.75 1.65625 11.8125 1.75 11.7812C2.71875 11.5 3.625 11.4062 4.4375 11.4062C6.0625 11.4062 7.375 11.8125 8.25 12.1562ZM16.5 11.625V2.5C16.5 2.40625 16.4375 2.34375 16.375 2.3125C15.0938 1.875 13.875 1.625 12.8438 1.65625C11.375 1.65625 10.2812 2.0625 9.75 2.3125V12.1562C11.0625 11.625 13.375 11 16.2188 11.7812C16.3125 11.8125 16.4062 11.75 16.4375 11.75C16.5 11.6875 16.5 11.625 16.5 11.625Z" fill="black"/>
</svg>
