<svg width="25" height="25" viewBox="0 0 25 25" fill="none" xmlns="http://www.w3.org/2000/svg">
<path d="M14.5938 14.5312C15.4375 14.0156 16 13.0781 16 12C16 10.3594 14.6406 9 13 9C11.9219 9 10.9844 9.5625 10.4688 10.4062L7.04688 11.3906C7.375 8.39062 9.85938 6 13 6C16.2812 6 18.9531 8.71875 18.9531 12C18.9531 15.1406 16.6094 17.625 13.6094 17.9531L14.5938 14.5312ZM13.5156 11.4844C13.7031 11.6719 13.75 11.9531 13.7031 12.2344L10.7031 22.7344C10.6094 23.0156 10.3281 23.25 10.0469 23.25C10 23.25 10 23.25 10 23.25C9.67188 23.25 9.39062 23.1094 9.29688 22.8281L7.79688 19.3125L3.29688 23.8125C3.01562 24.0938 2.54688 24.0938 2.26562 23.8125L1.1875 22.7344C0.90625 22.4531 0.90625 21.9844 1.1875 21.7031L5.6875 17.2031L2.17188 15.7031C1.89062 15.6094 1.70312 15.2812 1.75 14.9531C1.75 14.6719 1.98438 14.3906 2.26562 14.2969L12.7656 11.2969C13.0469 11.25 13.3281 11.2969 13.5156 11.4844ZM13 0.75C19.1875 0.75 24.25 5.8125 24.25 12C24.25 18.2344 19.1875 23.25 13 23.25C12.6719 23.25 12.3906 23.25 12.1094 23.25C12.1094 23.2031 12.1094 23.1562 12.1562 23.1562L12.9531 20.25C12.9531 20.25 12.9531 20.25 13 20.25C17.5469 20.25 21.2031 16.5938 21.2031 12C21.2031 7.45312 17.5469 3.75 13 3.75C8.40625 3.75 4.75 7.45312 4.75 12C4.75 12.0469 4.75 12.0469 4.75 12.0469L1.84375 12.8438C1.84375 12.8906 1.79688 12.8906 1.75 12.8906C1.75 12.6094 1.75 12.3281 1.75 12C1.75 5.8125 6.76562 0.75 13 0.75Z" fill="black"/>
</svg>
