<svg width="27" height="25" viewBox="0 0 27 25" fill="none" xmlns="http://www.w3.org/2000/svg">
<path d="M25.2031 13.5469C25.6719 13.5469 26.0469 13.9219 25.9531 14.3438C25.5781 16.9688 24.3594 19.2656 22.5312 20.9531C22.25 21.2344 21.7812 21.2344 21.5 20.9062L14.0938 13.5469H25.2031ZM24.4531 10.5C24.5 10.9219 24.125 11.2969 23.7031 11.2969H13.2031V0.796875C13.2031 0.375 13.5781 0 14 0.046875C19.625 0.421875 24.0781 4.875 24.4531 10.5ZM10.9531 13.5469L18.2656 20.8125C18.5938 21.1406 18.5938 21.7031 18.2188 21.9375C16.3906 23.25 14.2344 24 11.8438 24C5.84375 24.0938 0.6875 19.1719 0.5 13.1719C0.265625 7.3125 4.57812 2.4375 10.1562 1.64062C10.5781 1.59375 10.9531 1.96875 10.9531 2.39062V13.5469Z" fill="#FEFEFE"/>
</svg>
