<svg width="20" height="19" viewBox="0 0 20 19" fill="none" xmlns="http://www.w3.org/2000/svg">
<path d="M10 0.125C15.1562 0.125 19.375 4.34375 19.375 9.5C19.375 14.6953 15.1562 18.875 10 18.875C4.80469 18.875 0.625 14.6953 0.625 9.5C0.625 4.34375 4.80469 0.125 10 0.125ZM13.2422 12.5859C13.5547 12.1562 13.4766 11.5703 13.0469 11.2578L10.9375 9.65625V5.4375C10.9375 4.92969 10.5078 4.5 10 4.5C9.45312 4.5 9.0625 4.92969 9.0625 5.4375V10.125C9.0625 10.4375 9.17969 10.7109 9.41406 10.9062L11.9141 12.7812C12.0703 12.8984 12.2656 12.9375 12.4609 12.9375C12.7734 12.9375 13.0469 12.8203 13.2422 12.5859Z" fill="black"/>
</svg>
