<svg width="70" height="49" viewBox="0 0 70 49" fill="none" xmlns="http://www.w3.org/2000/svg">
<g clip-path="url(#clip0_197_525)">
<path fill-rule="evenodd" clip-rule="evenodd" d="M0 0V48.125H70V0H0Z" fill="#2E42A5"/>
<mask id="mask0_197_525" style="mask-type:luminance" maskUnits="userSpaceOnUse" x="0" y="0" width="70" height="49">
<path fill-rule="evenodd" clip-rule="evenodd" d="M0 0V48.125H70V0H0Z" fill="white"/>
</mask>
<g mask="url(#mask0_197_525)">
<path d="M-7.79407 44.6861L7.61031 50.6596L70.3478 6.49285L78.4744 -2.3822L62.0025 -4.37738L36.4131 14.6541L15.8156 27.4794L-7.79407 44.6861Z" fill="white"/>
<path d="M-5.6875 48.8709L2.16344 52.3359L75.5563 -3.20636H64.5378L-5.6875 48.8709Z" fill="#F50100"/>
<path d="M77.7941 44.6861L62.3897 50.6596L-0.347803 6.49285L-8.47437 -2.3822L7.99751 -4.37738L33.5869 14.6541L54.1844 27.4794L77.7941 44.6861Z" fill="white"/>
<path d="M77.2691 47.6899L69.4204 51.1549L38.1697 27.3731L28.9035 24.7182L-9.25745 -2.35211H1.76318L39.9001 24.0765L50.0304 27.2608L77.2691 47.6899Z" fill="#F50100"/>
<path fill-rule="evenodd" clip-rule="evenodd" d="M43.2644 -4.01044H26.7357V16.0416H-4.31372V32.0833H26.7357V52.1354H43.2644V32.0833H74.4363V16.0416H43.2644V-4.01044Z" fill="#F50100"/>
<mask id="mask1_197_525" style="mask-type:luminance" maskUnits="userSpaceOnUse" x="-5" y="-5" width="80" height="58">
<path fill-rule="evenodd" clip-rule="evenodd" d="M43.2644 -4.01044H26.7357V16.0416H-4.31372V32.0833H26.7357V52.1354H43.2644V32.0833H74.4363V16.0416H43.2644V-4.01044Z" fill="white"/>
</mask>
<g mask="url(#mask1_197_525)">
<path d="M26.7357 -4.01046V-8.02087H22.3607V-4.01046H26.7357ZM43.2644 -4.01046H47.6394V-8.02087H43.2644V-4.01046ZM26.7357 16.0416V20.052H31.1107V16.0416H26.7357ZM-4.31372 16.0416V12.0312H-8.68872V16.0416H-4.31372ZM-4.31372 32.0833H-8.68872V36.0937H-4.31372V32.0833ZM26.7357 32.0833H31.1107V28.0729H26.7357V32.0833ZM26.7357 52.1354H22.3607V56.1458H26.7357V52.1354ZM43.2644 52.1354V56.1458H47.6394V52.1354H43.2644ZM43.2644 32.0833V28.0729H38.8894V32.0833H43.2644ZM74.4363 32.0833V36.0937H78.8113V32.0833H74.4363ZM74.4363 16.0416H78.8113V12.0312H74.4363V16.0416ZM43.2644 16.0416H38.8894V20.052H43.2644V16.0416ZM26.7357 -4.1008e-05H43.2644V-8.02087H26.7357V-4.1008e-05ZM31.1107 16.0416V-4.01046H22.3607V16.0416H31.1107ZM-4.31372 20.052H26.7357V12.0312H-4.31372V20.052ZM0.0612793 32.0833V16.0416H-8.68872V32.0833H0.0612793ZM26.7357 28.0729H-4.31372V36.0937H26.7357V28.0729ZM31.1107 52.1354V32.0833H22.3607V52.1354H31.1107ZM43.2644 48.125H26.7357V56.1458H43.2644V48.125ZM38.8894 32.0833V52.1354H47.6394V32.0833H38.8894ZM74.4363 28.0729H43.2644V36.0937H74.4363V28.0729ZM70.0613 16.0416V32.0833H78.8113V16.0416H70.0613ZM43.2644 20.052H74.4363V12.0312H43.2644V20.052ZM38.8894 -4.01046V16.0416H47.6394V-4.01046H38.8894Z" fill="white"/>
</g>
</g>
</g>
<defs>
<clipPath id="clip0_197_525">
<rect width="70" height="48.125" fill="white"/>
</clipPath>
</defs>
</svg>
