<svg width="25" height="24" viewBox="0 0 25 24" fill="none" xmlns="http://www.w3.org/2000/svg">
<g clip-path="url(#clip0_603_336)">
<path d="M24.1665 12C24.1665 5.37262 18.7939 0 12.1665 0C5.53913 0 0.166504 5.37262 0.166504 12C0.166504 17.9895 4.55475 22.954 10.2915 23.8542V15.4688H7.24463V12H10.2915V9.35625C10.2915 6.34875 12.0831 4.6875 14.8241 4.6875C16.137 4.6875 17.5103 4.92188 17.5103 4.92188V7.875H15.9971C14.5064 7.875 14.0415 8.80003 14.0415 9.74906V12H17.3696L16.8376 15.4688H14.0415V23.8542C19.7783 22.954 24.1665 17.9896 24.1665 12Z" fill="#1877F2"/>
<path d="M16.8376 15.4688L17.3696 12H14.0415V9.74906C14.0415 8.80003 14.5064 7.875 15.9971 7.875H17.5103V4.92188C17.5103 4.92188 16.137 4.6875 14.8241 4.6875C12.0831 4.6875 10.2915 6.34875 10.2915 9.35625V12H7.24463V15.4688H10.2915V23.8542C10.9118 23.9514 11.5387 24.0001 12.1665 24C12.7943 24.0001 13.4212 23.9514 14.0415 23.8542V15.4688H16.8376Z" fill="white"/>
</g>
<defs>
<clipPath id="clip0_603_336">
<rect width="24" height="24" fill="white" transform="translate(0.166504)"/>
</clipPath>
</defs>
</svg>
