<svg width="24" height="24" viewBox="0 0 24 24" fill="none" xmlns="http://www.w3.org/2000/svg">
<path d="M8.71875 1.26562C7.64062 2.71875 6.79688 4.92188 6.375 7.5H1.6875C3 4.54688 5.57812 2.20312 8.71875 1.26562ZM7.5 12C7.5 10.9688 7.54688 9.98438 7.64062 9H16.3125C16.4062 9.98438 16.5 10.9688 16.5 12C16.5 13.0781 16.4062 14.0625 16.3125 15H7.64062C7.54688 14.0625 7.5 13.0781 7.5 12ZM16.0781 7.5H7.875C8.625 3.375 10.3594 0.75 12 0.75C13.5938 0.75 15.3281 3.375 16.0781 7.5ZM22.2656 7.5H17.5781C17.1562 4.92188 16.3125 2.71875 15.2344 1.26562C18.375 2.20312 20.9531 4.54688 22.2656 7.5ZM15.2344 22.7812C16.3125 21.3281 17.1562 19.125 17.5781 16.5H22.2656C20.9531 19.5 18.375 21.8438 15.2344 22.7812ZM22.8281 9C23.0625 9.98438 23.25 10.9688 23.25 12C23.25 13.0781 23.0625 14.0625 22.8281 15H17.8125C17.9062 14.0625 18 13.0781 18 12C18 10.9688 17.9062 9.98438 17.8125 9H22.8281ZM7.875 16.5H16.0781C15.3281 20.6719 13.5938 23.25 12 23.25C10.3594 23.25 8.625 20.6719 7.875 16.5ZM6 12C6 13.0781 6.04688 14.0625 6.14062 15H1.125C0.890625 14.0625 0.75 13.0781 0.75 12C0.75 10.9688 0.890625 9.98438 1.125 9H6.14062C6.04688 9.98438 6 10.9688 6 12ZM1.6875 16.5H6.375C6.79688 19.125 7.64062 21.3281 8.71875 22.7812C5.57812 21.8438 3 19.5 1.6875 16.5Z" fill="black"/>
</svg>
