<svg width="18" height="24" viewBox="0 0 18 24" fill="none" xmlns="http://www.w3.org/2000/svg">
<path d="M16.5 21C17.2969 21 18 21.7031 18 22.5C18 23.3438 17.2969 24 16.5 24H1.5C0.65625 24 0 23.3438 0 22.5C0 21.7031 0.65625 21 1.5 21V20.0156C1.5 18.7031 1.875 17.4844 2.67188 16.4062L6 12L2.67188 7.64062C1.875 6.5625 1.5 5.34375 1.5 4.03125V3C0.65625 3 0 2.34375 0 1.5C0 0.703125 0.65625 0 1.5 0H16.5C17.2969 0 18 0.703125 18 1.5C18 2.34375 17.2969 3 16.5 3V4.03125C16.5 5.34375 16.0781 6.5625 15.2812 7.64062L12 12L15.2812 16.4062C16.0781 17.4844 16.5 18.7031 16.5 20.0156V21ZM5.20312 6H12.75L12.8906 5.8125C13.2656 5.29688 13.5 4.6875 13.5 4.03125V3H4.5V4.03125C4.5 4.6875 4.6875 5.29688 5.0625 5.8125L5.20312 6ZM9 13.0312L5.20312 18H12.75L9 13.0312Z" fill="#FEFEFE"/>
</svg>
