<svg width="28" height="24" viewBox="0 0 28 24" fill="none" xmlns="http://www.w3.org/2000/svg">
<path d="M12.5312 0C12.7656 0 13.0938 0.1875 13.1875 0.421875L18.1094 9H23.4531C25.1406 9 28 10.3594 28 12C28 13.6875 25.1406 15 23.4531 15H18.1094L13.1875 23.625C13.0469 23.8594 12.8125 24 12.5312 24H9.48438C8.96875 24 8.59375 23.5312 8.73438 23.0625L11.0312 15H6.20312L4.1875 17.7188C4.04688 17.9062 3.85938 18 3.57812 18H1.70312C1.23438 18 0.859375 17.5781 1 17.1094L2.45312 12L1 6.9375C0.859375 6.46875 1.23438 6 1.70312 6H3.57812C3.85938 6 4.04688 6.14062 4.1875 6.32812L6.20312 9H11.0312L8.73438 0.984375C8.59375 0.515625 8.96875 0 9.48438 0H12.5312Z" fill="black"/>
</svg>
