<svg width="24" height="24" viewBox="0 0 24 24" fill="none" xmlns="http://www.w3.org/2000/svg">
<path d="M23.6719 0.9375C24 2.4375 24 3.60938 23.9531 4.78125C23.9531 9.60938 21.375 12.5156 17.9531 14.6719V19.5938C17.9531 20.3438 17.4375 21.2344 16.7344 21.6094L12.0938 23.9062C11.9531 23.9531 11.7656 24 11.5781 24C10.9688 24 10.4531 23.5312 10.4531 22.875V18.0469L9.42188 19.0781C8.8125 19.6875 7.82812 19.5938 7.3125 19.0781L4.92188 16.6875C4.3125 16.0781 4.35938 15.0938 4.92188 14.5781L5.95312 13.5H1.07812C0.46875 13.5 0 13.0312 0 12.375C0 12.2344 0.046875 12.0469 0.09375 11.9062L2.39062 7.26562C2.76562 6.5625 3.65625 6 4.40625 6H9.28125C11.4844 2.625 14.3906 0 19.2188 0C20.3906 0 21.5625 0 23.0625 0.328125C23.3438 0.421875 23.5781 0.65625 23.6719 0.9375ZM17.9531 7.875C19.0312 7.875 19.8281 7.07812 19.8281 6C19.8281 4.96875 19.0312 4.125 17.9531 4.125C16.9219 4.125 16.0781 4.96875 16.0781 6C16.0781 7.07812 16.9219 7.875 17.9531 7.875Z" fill="#FEFEFE"/>
</svg>
