<svg width="27" height="24" viewBox="0 0 27 24" fill="none" xmlns="http://www.w3.org/2000/svg">
<path d="M25.5 0C26.2969 0 27 0.703125 27 1.5V22.5C27 23.3438 26.2969 24 25.5 24C24.6562 24 24 23.3438 24 22.5V1.5C24 0.703125 24.6562 0 25.5 0ZM7.5 13.5C8.29688 13.5 9 14.2031 9 15V22.5C9 23.3438 8.29688 24 7.5 24C6.65625 24 6 23.3438 6 22.5V15C6 14.2031 6.65625 13.5 7.5 13.5ZM1.5 18C2.29688 18 3 18.7031 3 19.5V22.5C3 23.3438 2.29688 24 1.5 24C0.65625 24 0 23.3438 0 22.5V19.5C0 18.7031 0.65625 18 1.5 18ZM19.5 4.5C20.2969 4.5 21 5.20312 21 6V22.5C21 23.3438 20.2969 24 19.5 24C18.6562 24 18 23.3438 18 22.5V6C18 5.20312 18.6562 4.5 19.5 4.5ZM13.5 9C14.2969 9 15 9.70312 15 10.5V22.5C15 23.3438 14.2969 24 13.5 24C12.6562 24 12 23.3438 12 22.5V10.5C12 9.70312 12.6562 9 13.5 9Z" fill="black"/>
</svg>
