<svg width="20" height="17" viewBox="0 0 20 17" fill="none" xmlns="http://www.w3.org/2000/svg">
<path d="M9.96875 10.125C8.1875 10.125 6.71875 8.6875 6.71875 6.875C6.71875 5.09375 8.1875 3.625 9.96875 3.625C11.7812 3.625 13.2188 5.09375 13.2188 6.875C13.2188 8.6875 11.7812 10.125 9.96875 10.125ZM9.96875 5.125C9.03125 5.125 8.21875 5.9375 8.21875 6.875C8.21875 7.84375 9.03125 8.625 9.96875 8.625C10.9375 8.625 11.7188 7.84375 11.7188 6.875C11.7188 5.9375 10.9375 5.125 9.96875 5.125ZM16 5.125C14.5938 5.125 13.5 4.03125 13.5 2.625C13.5 1.25 14.5938 0.125 16 0.125C17.375 0.125 18.5 1.25 18.5 2.625C18.5 4.03125 17.375 5.125 16 5.125ZM11.5312 11.125C14 11.125 16 13 16 15.3125C16 15.7812 15.5938 16.125 15.0938 16.125H4.875C4.375 16.125 4 15.7812 4 15.3125C4 13 5.96875 11.125 8.4375 11.125H11.5312ZM5.5625 14.625H14.4062C14.0625 13.5 12.9062 12.625 11.5312 12.625H8.4375C7.0625 12.625 5.90625 13.5 5.5625 14.625ZM17.2188 6.125C18.75 6.125 20 7.4375 20 9.0625C20 9.375 19.75 9.625 19.4375 9.625H13.1875C13.8438 8.90625 14.2188 7.9375 14.2188 6.875C14.2188 6.71875 14.1875 6.5625 14.1875 6.40625C14.5312 6.25 14.9062 6.125 15.3125 6.125H17.2188ZM5.71875 6.875C5.71875 7.9375 6.125 8.90625 6.78125 9.625H0.53125C0.21875 9.625 0 9.375 0 9.0625C0 7.4375 1.21875 6.125 2.75 6.125H4.65625C5.0625 6.125 5.4375 6.21875 5.78125 6.40625C5.75 6.5625 5.71875 6.71875 5.71875 6.875ZM4 5.125C2.59375 5.125 1.5 4.03125 1.5 2.625C1.5 1.25 2.59375 0.125 4 0.125C5.375 0.125 6.5 1.25 6.5 2.625C6.5 4.03125 5.375 5.125 4 5.125Z" fill="black"/>
</svg>
